<?xml version="1.0" encoding="UTF-8"?>
<svg xmlns="http://www.w3.org/2000/svg" viewBox="-2.5740 -1.8540 133.8480 96.4080"><path d="M6.5,63.1L6.5,63.1C5.8,64.7,6.5,63.1,6.5,63.1z" fill="#000000" /><path d="M32.3,5.6l40.5,62.5l-47.3,0L12.9,48.7c3.1-6.9,3.4-7.5,6.5-14.4l12,18.5l15.8,0L25.8,20  C27.9,15.4,32.3,5.6,32.3,5.6z" fill="#000000" /><path d="M6.5,63.1l9.3,14.4l63.1,0l9.9,15.2l-78.9,0L0,77.5l0,0C0,77.5,5.8,64.7,6.5,63.1z" fill="#000000" /><path d="M122.2,29.7L122.2,29.7C122.9,28,122.2,29.7,122.2,29.7z" fill="#000000" /><path d="M96.4,87.1L55.9,24.6l47.3,0L115.8,44c-3.1,6.9-3.4,7.5-6.5,14.4l-12-18.5l-15.8,0l21.3,32.9  C100.8,77.4,96.4,87.1,96.4,87.1z" fill="#000000" /><path d="M122.2,29.6l-9.3-14.4l-63.1,0L39.9,0l78.9,0l9.9,15.2l0,0C128.7,15.2,122.9,28,122.2,29.6z" fill="#000000" /></svg>
