<?xml version="1.0" encoding="UTF-8"?>
<svg xmlns="http://www.w3.org/2000/svg" viewBox="12.3230 -0.0984 155.3240 120.0368"><path d="M90,49.7c-1.54,1.91-3.06,3.82-4.58,5.73-1.18,1.48-2.38,3-3.58,4.47-18,22.52-36.52,44.3-53,44.17V93.33a34.06,34.06,0,0,0,0-66.86V15.72h0a22.64,22.64,0,0,1,8.44,1.67C48.05,21.56,59.48,33,70.91,46.53c.44-.54.86-1.09,1.3-1.63Q75.6,40.64,79,36.39C65.54,20.58,51.7,7.19,37.28,3.33a31.62,31.62,0,0,0-8.22-1.12H15.32V40.59a20.36,20.36,0,0,1,13.51-.17,20.54,20.54,0,0,1,0,39,20.08,20.08,0,0,1-6.52,1.07,20.46,20.46,0,0,1-7-1.23v38.37H29.05c21.37,0,41.48-23.26,60.93-47.5h0c1.54-1.91,3.06-3.82,4.58-5.72,1.18-1.49,2.38-3,3.58-4.46h0c17.94-22.42,36.33-44.18,52.79-44.18h.22V26.51a34.06,34.06,0,0,0,0,66.79v10.79h-.21a22.45,22.45,0,0,1-8.22-1.66c-10.79-4.15-22.21-15.66-33.65-29.17-.43.54-.86,1.1-1.3,1.64-2.27,2.83-4.53,5.67-6.82,8.51,13.5,15.78,27.35,29.15,41.77,33a31.07,31.07,0,0,0,8.43,1.13h13.51V79.27a20.42,20.42,0,0,1-13.51.06,20.54,20.54,0,0,1,0-38.86,20.21,20.21,0,0,1,6.67-1.12,19.87,19.87,0,0,1,6.84,1.19V2.21H151C129.57,2.21,109.45,25.44,90,49.7Z" fill="#000000" /></svg>
