<?xml version="1.0" encoding="UTF-8"?>
<svg xmlns="http://www.w3.org/2000/svg" viewBox="-7.4366 -8.3581 384.0797 434.6238"><path d="M113.1,406.1c-0.4-0.4-0.8-0.8-1.1-1.2l0,0l-69.2-82.5c-1.9-2.2-3.7-4.4-5.3-6.4l-1.8-2.2l-32-38.1  c-5.7-6.8-4.8-16.9,2-22.5l69.6-57.6c6.8-5.7,16.9-4.8,22.5,2c0.2,0.2,0.3,0.4,0.5,0.6c17.8,23.2,36.8,46.9,57,71.1l1,1.2l3.3,3.9  c27.6,32.6,25.9,90.1,1.2,126.6C149.9,416.9,127,419.8,113.1,406.1z" fill="#000000" /><path d="M367.1,231.1C318,316.5,250.4,376.5,157.6,414.8c-15.8,6.5-33.9,2.6-45.6-9.8c-0.5-0.5-1-1.1-1.6-1.7  c-17.3-20.6-74.7-89.3-74.8-89.4l0,0c109.5,5.4,191.8-100,233-165.4c5.8-9.2,18-11.5,25.6-3.8c18.5,18.8,53.4,52.7,69.3,66.3  C369.5,216,371,224.5,367.1,231.1z" fill="#000000" /><circle cx="164.2" cy="69" r="69" fill="#000000" /></svg>
