<?xml version="1.0" encoding="utf-8"?>
<!-- Generator: Adobe Illustrator 24.3.0, SVG Export Plug-In . SVG Version: 6.00 Build 0)  -->
<svg version="1.1" id="Warstwa_1" xmlns="http://www.w3.org/2000/svg" xmlns:xlink="http://www.w3.org/1999/xlink" x="0px" y="0px"
	 viewBox="0 0 1049.2 432.5" style="enable-background:new 0 0 1049.2 432.5;" xml:space="preserve">
<style type="text/css">
	.st0{fill:#000000;}
	.st1{fill:none;stroke:#000000;stroke-miterlimit:10;}
	.st2{fill:#000000;}
</style>
<g>
	<g>
		<path class="st0" d="M372.3,64.5c-11.6-7.1-24.4-10.6-38.6-10.6h-66h-40.3V134v45.4v111.2h40.3V215h66c14.2,0,27.1-3.7,38.6-11
			c11.6-7.3,20.8-17.1,27.8-29.3c7-12.2,10.4-25.8,10.4-40.7c0-14.9-3.5-28.5-10.4-40.7C393.1,81.2,383.9,71.5,372.3,64.5z
			 M364.5,155.1c-3.4,6.3-7.8,11.5-13.2,15.3c-5.5,3.9-11.6,5.8-18.3,5.8h-65.3v-0.7l-0.2-0.5c-4.9-16.5-16.7-30-32.3-37.3l-7.9-3.6
			l7.7-3.5c15.8-7.2,27.6-21,32.5-37.6l0.1-0.3c21.8,0,43.5,0,65.3,0c6.7,0,12.8,1.9,18.3,5.6c5.5,3.7,9.9,8.7,13.2,14.9
			c3.4,6.2,5,13.2,5,20.9S367.8,148.8,364.5,155.1z"/>
		<path class="st0" d="M628.7,190.6c-5-8.8-12.3-15.7-20.8-20.6c-9-5.2-14.7-8.2-25.2-8.8c20.4-2.6,33.7-18.6,38.7-38.5
			S618,80,601.3,68.1c-2.7-1.9-5.4-3.6-8.3-5c-9.9-4.9-20-6.5-28.8-7.7c0,0-0.7-0.1-1.3-0.2c-14.2-1.9-80.8-1.7-126.6-1.3
			c0,0,0,31.1,0,36.1v199.3h112.7c13.7,0,25.9-1.5,36.6-4.5c10.7-3,19.8-7.5,27.4-13.3c7.6-5.8,13.3-13.1,17.2-21.7
			c3.9-8.6,5.8-18.6,5.8-29.8C636,208.9,633.6,199.1,628.7,190.6z M476.7,88.5h61.9c13.9,0,24.6,2.7,32.1,8.1
			c7.5,5.4,11.2,13.1,11.2,23.2c0,6.1-1.7,11.5-5,16.2c-3.3,4.7-8,8.4-13.8,11.1c-5.9,2.7-12.5,4-20,4h-66.4V88.5z M589.2,238.2
			c-3.9,5.3-9.3,9.3-16.4,12c-7.1,2.7-15.7,4-25.9,4h-70.2v-68h68.3c10.2,0,19,1.3,26.5,3.9c7.5,2.6,13.2,6.3,17.3,11.3
			c4.1,4.9,6.2,10.9,6.2,17.9C594.9,226.6,593,232.9,589.2,238.2z"/>
		<path class="st0" d="M853.4,219.2c0,15-3.9,28.1-11.6,39.1c-7.7,11-18.7,19.5-32.8,25.4c-14.2,5.9-31.1,8.9-50.7,8.9
			c-14.2,0-27.3-1.7-39.4-5.1c-12.1-3.4-23-8.5-32.8-15.3c-9.8-6.9-18.6-15.3-26.3-25.4l27.6-28.6c12.2,15.7,23.9,26.6,35.1,32.7
			c11.2,6.1,24.5,9.1,39.9,9.1c9.5,0,18-1.3,25.8-4c7.7-2.7,13.8-6.4,18.3-11.1c4.5-4.7,6.7-10.1,6.7-16.2c0-4-0.8-7.9-2.2-11.5
			c-1.5-3.6-3.8-6.8-6.9-9.8c-3.1-2.9-7.1-5.6-11.9-8.1c-4.9-2.5-10.5-4.7-17-6.6c-6.5-1.9-13.9-3.5-22.4-4.9
			c-13.4-2.5-25.1-5.7-35.1-9.8c-10-4-18.3-9.1-25-15.2c-6.7-6.1-11.7-13-14.9-20.7c-3.2-7.7-4.9-16.4-4.9-26.1
			c0-9.4,2.3-18.2,6.9-26.3c4.6-8.1,10.9-15.1,19-21c8.1-6,17.6-10.5,28.5-13.8c10.9-3.2,22.8-4.9,35.5-4.9
			c13.4,0,25.7,1.6,36.9,4.7c8,2.3,18.6,5.5,29.9,14c7,5.3,12,10.8,15.2,14.9c-7.3,11-14.6,22.1-21.9,33.1
			c-5-7.4-10.6-13.6-16.8-18.7c-6.2-5.1-13.1-8.9-20.5-11.5c-7.5-2.6-15.4-3.9-23.9-3.9c-9.7,0-18.2,1.3-25.4,4
			c-7.2,2.7-12.9,6.5-17,11.3c-4.1,4.8-6.2,10.5-6.2,17c0,4.7,1,9,3,13c2,3.9,5,7.4,9.1,10.4c4.1,3,9.6,5.7,16.6,8.1
			c7,2.4,15.3,4.4,25,6.2c13.7,2.7,25.9,6.1,36.6,10.3c10.7,4.2,19.8,9,27.2,14.7c7.5,5.6,13.1,11.9,17,18.9
			C851.4,203.6,853.4,211.1,853.4,219.2z"/>
	</g>
	<path class="st1" d="M381.4,134.4"/>
	<path class="st1" d="M239.2,134.4"/>
	<path class="st1" d="M381.4,119.8"/>
	<path class="st1" d="M239.2,119.8"/>
	<path class="st1" d="M381.4,149"/>
	<path class="st1" d="M239.2,149"/>
	<g>
		<path class="st2" d="M218,129.4c-10.5-5.2-19.1-13-24.8-22.5l-5.1-8.5v71.3l5.1-8.5c5.7-9.5,14.3-17.3,24.8-22.5l9.4-4.6
			L218,129.4z"/>
	</g>
</g>
<g>
	<path class="st0" d="M222.8,363.5c2.1-1.3,3.8-2.9,5.1-5c1.3-2.1,1.9-4.4,1.9-6.8c0-2.7-0.6-5.1-1.9-7.3c-1.3-2.2-3-3.9-5.2-5.1
		c-2.2-1.3-4.5-1.9-7.1-1.9h-19.1v44.8h6.9v-16.8h10.2l9.5,16.8l8.4,0.1l-10.4-18C221.8,364.1,222.3,363.8,222.8,363.5z
		 M203.5,344.1h11c1.6,0,3,0.3,4.3,1c1.3,0.6,2.2,1.5,2.9,2.7c0.7,1.1,1.1,2.4,1.1,3.9c0,1.3-0.3,2.5-0.8,3.6
		c-0.6,1.1-1.3,1.9-2.3,2.6c-1,0.6-2.1,0.9-3.3,0.9h-12.8V344.1z"/>
	<polygon class="st0" points="241.1,382.3 269.3,382.3 269.3,375.6 248,375.6 248,362.6 265.8,362.6 265.8,356 248,356 248,344.1 
		269.3,344.1 269.3,337.5 241.1,337.5 	"/>
	<path class="st0" d="M306.7,361.1c-1.3-1.1-2.8-2-4.7-2.8c-1.8-0.8-3.9-1.4-6.3-2c-1.7-0.3-3.1-0.7-4.3-1.2c-1.2-0.4-2.1-1-2.8-1.5
		c-0.7-0.6-1.2-1.2-1.6-2c-0.3-0.7-0.5-1.6-0.5-2.5c0-1.2,0.4-2.3,1.1-3.2c0.7-0.9,1.7-1.6,2.9-2.1c1.2-0.5,2.7-0.8,4.4-0.8
		c1.5,0,2.8,0.2,4.1,0.7c1.3,0.5,2.5,1.2,3.5,2.2c1.1,1,2,2.1,2.9,3.6l4.9-4.8c-1-1.7-2.2-3.1-3.7-4.3c-1.5-1.2-3.2-2.1-5.1-2.7
		c-1.9-0.6-4-0.9-6.3-0.9c-2.2,0-4.2,0.3-6.1,0.9c-1.9,0.6-3.5,1.5-4.9,2.6c-1.4,1.1-2.5,2.5-3.3,4c-0.8,1.5-1.2,3.2-1.2,5
		c0,1.8,0.3,3.5,0.8,5c0.6,1.5,1.4,2.8,2.6,3.9c1.2,1.2,2.6,2.1,4.3,2.9c1.7,0.8,3.7,1.4,6,1.9c1.5,0.3,2.7,0.6,3.8,0.9
		c1.1,0.4,2.1,0.8,2.9,1.2c0.8,0.5,1.5,1,2,1.5c0.5,0.6,0.9,1.2,1.2,1.9c0.3,0.7,0.4,1.4,0.4,2.2c0,1.2-0.4,2.2-1.2,3.1
		c-0.8,0.9-1.8,1.6-3.1,2.1c-1.3,0.5-2.8,0.8-4.4,0.8c-2.6,0-4.9-0.6-6.8-1.7c-1.9-1.2-3.9-3.2-6-6.2l-4.7,5.4
		c1.3,1.9,2.8,3.5,4.5,4.8c1.7,1.3,3.6,2.3,5.6,2.9c2.1,0.6,4.3,1,6.8,1c3.4,0,6.3-0.6,8.7-1.7c2.4-1.1,4.3-2.7,5.6-4.8
		c1.3-2.1,2-4.6,2-7.4c0-1.5-0.3-3-1-4.3C308.9,363.3,307.9,362.1,306.7,361.1z"/>
	<polygon class="st0" points="316.3,344.1 328.9,344.1 328.9,382.3 335.8,382.3 335.8,344.1 348.7,344.1 348.7,337.5 316.3,337.5 	
		"/>
	<path class="st0" d="M383.4,363.5c2.1-1.3,3.8-2.9,5.1-5c1.3-2.1,1.9-4.4,1.9-6.8c0-2.7-0.6-5.1-1.9-7.3c-1.3-2.2-3-3.9-5.2-5.1
		c-2.2-1.3-4.5-1.9-7.1-1.9h-19.1v44.8h6.9v-16.8h10.2l9.5,16.8l8.4,0.1l-10.4-18C382.4,364.1,382.9,363.8,383.4,363.5z
		 M364.1,344.1h11c1.6,0,3,0.3,4.3,1c1.3,0.6,2.2,1.5,2.9,2.7c0.7,1.1,1.1,2.4,1.1,3.9c0,1.3-0.3,2.5-0.8,3.6
		c-0.6,1.1-1.3,1.9-2.3,2.6c-1,0.6-2.1,0.9-3.3,0.9h-12.8V344.1z"/>
	<path class="st0" d="M430.3,364.5c0,2.2-0.5,4.1-1.5,5.9c-1,1.7-2.4,3.1-4.1,4.1c-1.7,1-3.7,1.5-5.8,1.5c-2,0-3.9-0.5-5.5-1.5
		c-1.7-1-3-2.4-4.1-4.1c-1-1.7-1.5-3.7-1.5-5.9v-27.1h-6.9V365c0,3.4,0.8,6.4,2.3,9.1c1.6,2.7,3.7,4.8,6.4,6.3
		c2.7,1.5,5.8,2.3,9.3,2.3c3.5,0,6.6-0.8,9.3-2.3c2.7-1.5,4.9-3.6,6.4-6.3c1.6-2.7,2.3-5.7,2.3-9.1v-27.7h-6.6V364.5z"/>
	<polygon class="st0" points="486.7,337.5 477.6,337.5 455.7,359.4 455.7,337.5 448.8,337.5 448.8,382.3 455.7,382.3 455.7,367.6 
		462.5,360.9 478.5,382.3 487.1,382.3 467.4,356.2 	"/>
	<polygon class="st0" points="491.6,344.1 504.2,344.1 504.2,382.3 511.1,382.3 511.1,344.1 524,344.1 524,337.5 491.6,337.5 	"/>
	<path class="st0" d="M561.4,364.5c0,2.2-0.5,4.1-1.5,5.9c-1,1.7-2.4,3.1-4.1,4.1c-1.7,1-3.7,1.5-5.8,1.5c-2,0-3.9-0.5-5.5-1.5
		c-1.7-1-3-2.4-4.1-4.1c-1-1.7-1.5-3.7-1.5-5.9v-27.1h-6.9V365c0,3.4,0.8,6.4,2.3,9.1c1.6,2.7,3.7,4.8,6.4,6.3
		c2.7,1.5,5.8,2.3,9.3,2.3c3.5,0,6.6-0.8,9.3-2.3c2.7-1.5,4.9-3.6,6.4-6.3c1.6-2.7,2.3-5.7,2.3-9.1v-27.7h-6.6V364.5z"/>
	<path class="st0" d="M606.1,363.5c2.1-1.3,3.8-2.9,5.1-5c1.3-2.1,1.9-4.4,1.9-6.8c0-2.7-0.6-5.1-1.9-7.3c-1.3-2.2-3-3.9-5.2-5.1
		c-2.2-1.3-4.5-1.9-7.1-1.9h-19.1v44.8h6.9v-16.8H597l9.5,16.8l8.4,0.1l-10.4-18C605,364.1,605.6,363.8,606.1,363.5z M586.8,344.1
		h11c1.6,0,3,0.3,4.3,1c1.3,0.6,2.2,1.5,2.9,2.7c0.7,1.1,1.1,2.4,1.1,3.9c0,1.3-0.3,2.5-0.8,3.6s-1.3,1.9-2.3,2.6
		c-1,0.6-2.1,0.9-3.3,0.9h-12.8V344.1z"/>
	<polygon class="st0" points="648.6,337.5 636.8,356 623.9,337.5 615.5,337.5 633.2,362.4 633.2,382.3 640.1,382.3 640.1,362.3 
		656.5,337.5 	"/>
	<polygon class="st0" points="695.1,342.4 695.1,337.5 662.7,337.5 662.7,344.1 685.7,344.1 661,377.2 661,382.3 695.8,382.3 
		695.8,375.6 670.5,375.6 	"/>
	<path class="st0" d="M718.3,337.5l-17.3,44.8h7l4.2-11.1H731l4.2,11.1h7.4l-17.2-44.8H718.3z M714.7,364.5l3.4-9
		c0.3-0.7,0.6-1.6,1-2.7c0.4-1.1,0.8-2.3,1.2-3.5c0.4-1.2,0.8-2.4,1.2-3.5c0.1-0.2,0.1-0.4,0.2-0.5c0,0,0,0.1,0,0.1
		c0.4,1.2,0.8,2.5,1.3,3.9c0.5,1.4,0.9,2.7,1.2,3.8c0.4,1.2,0.6,1.9,0.7,2.2l3.5,9.2H714.7z"/>
	<path class="st0" d="M757.3,348.5c1.3-1.4,2.9-2.5,4.7-3.3c1.8-0.8,3.8-1.2,5.9-1.2c1.3,0,2.6,0.2,3.9,0.6c1.3,0.4,2.6,1.1,3.8,1.9
		c1.3,0.8,2.5,1.9,3.7,3.1l4.6-4.8c-1.1-1.5-2.4-2.8-4.1-4c-1.7-1.2-3.6-2.1-5.6-2.8c-2.1-0.7-4.2-1-6.4-1c-3.1,0-5.9,0.6-8.6,1.7
		c-2.6,1.2-5,2.8-7,4.9c-2,2.1-3.6,4.5-4.7,7.3c-1.1,2.8-1.7,5.7-1.7,8.9c0,3.4,0.5,6.5,1.6,9.3c1,2.8,2.5,5.3,4.4,7.3
		c1.9,2.1,4.2,3.7,6.8,4.8c2.6,1.1,5.5,1.7,8.6,1.7c2.1,0,4.2-0.3,6.2-0.8c2.1-0.5,3.9-1.3,5.6-2.2c1.7-0.9,3-2,4-3.1l-3.5-5.6
		c-1,1-2.1,1.8-3.3,2.6c-1.2,0.7-2.5,1.3-3.8,1.7c-1.4,0.4-2.8,0.6-4.2,0.6c-2.3,0-4.4-0.4-6.3-1.1c-1.9-0.7-3.5-1.8-4.9-3.2
		c-1.4-1.4-2.4-3.1-3.2-5.1c-0.7-2-1.1-4.2-1.1-6.6c0-2.3,0.4-4.4,1.2-6.4C754.9,351.5,756,349.9,757.3,348.5z"/>
	<path class="st0" d="M802.2,343.9h8.2V368c0,1.6-0.3,3-1,4.2c-0.6,1.2-1.5,2.2-2.7,2.9c-1.2,0.7-2.5,1.1-4,1.1
		c-0.8,0-1.5-0.1-2.2-0.2c-0.7-0.1-1.4-0.4-2-0.9c-0.7-0.4-1.4-1-2.1-1.8c-0.7-0.8-1.6-1.8-2.5-3.1l-4.4,4.5
		c0.6,1.2,1.4,2.3,2.3,3.3c0.9,1,1.9,1.9,3,2.6c1.1,0.7,2.4,1.3,3.7,1.7c1.3,0.4,2.7,0.6,4.2,0.6c2.2,0,4.1-0.4,5.9-1.1
		c1.8-0.7,3.3-1.7,4.6-3c1.3-1.3,2.3-2.8,3-4.5c0.7-1.7,1.1-3.6,1.1-5.7v-24.8h6.9v-6.4h-22V343.9z"/>
	<polygon class="st0" points="861.9,344.1 861.9,337.5 833.7,337.5 833.7,382.3 861.9,382.3 861.9,375.6 840.6,375.6 840.6,362.6 
		858.4,362.6 858.4,356 840.6,356 840.6,344.1 	"/>
</g>
</svg>
