<?xml version="1.0" encoding="UTF-8"?>
<svg xmlns="http://www.w3.org/2000/svg" viewBox="-21.2420 -20.4475 1102.3252 1063.2644"><path d="M1053.15,548.8c-30.72-56.52-104.37-192.08-124.75-229.9a18,18,0,0,1,5-22.95C940.92,290.17,951,282.19,956,277a162.9,162.9,0,0,0,39.4-156A163.81,163.81,0,0,0,939.08,36.6L931.6,31a10.78,10.78,0,0,0-6.54-2.18,11,11,0,0,0-6.89,2.44L765,156a13.65,13.65,0,0,0-3.4,17l85.15,158.78a68.21,68.21,0,0,1-12,80.95l-30.32,30.44v81.53l68-68a49.2,49.2,0,0,0,9.61-28.33c0-.6,0-1.29-.1-2a7.57,7.57,0,0,1,2-5.85,7.79,7.79,0,0,1,5.72-2.5,7.53,7.53,0,0,1,6.75,4.1l7.15,13.54a94.27,94.27,0,0,1-16.79,111.23l-82.36,82.49v85.28l134.07-134a49.76,49.76,0,0,0,10.34-29.51,7.66,7.66,0,0,1,2.18-5.51,7.83,7.83,0,0,1,5.55-2.31,7.57,7.57,0,0,1,6.73,4l15.74,29a75.77,75.77,0,0,1-13,89.15L837.9,793.76a55.62,55.62,0,0,1-78.68,0L619.93,654.47a29.08,29.08,0,0,1,0-41.13L687.23,546a21.69,21.69,0,0,0-15.33-37H408.11a21.69,21.69,0,0,0-15.34,37l67.31,67.31a29.08,29.08,0,0,1,0,41.13L320.78,793.76a55.62,55.62,0,0,1-78.68,0L113.88,665.54a75.77,75.77,0,0,1-13-89.15l15.74-29a7.55,7.55,0,0,1,6.73-4,7.77,7.77,0,0,1,5.55,2.32,7.59,7.59,0,0,1,2.18,5.48,49.43,49.43,0,0,0,9.91,29l134.5,134.5-.08-85.48-82.28-82.28a94.27,94.27,0,0,1-16.79-111.23l7.15-13.54a7.53,7.53,0,0,1,6.75-4.1,7.81,7.81,0,0,1,5.73,2.5,7.58,7.58,0,0,1,2,5.84c-.06.73-.09,1.42-.1,1.86A48.9,48.9,0,0,0,207,456.13l68.53,68.53-.08-81.72-30.23-30.23a68.25,68.25,0,0,1-12-81L318.41,173a13.64,13.64,0,0,0-3.4-17L161.83,31.26A10.94,10.94,0,0,0,148.4,31L141,36.53A162.21,162.21,0,0,0,78.78,164.46,162.25,162.25,0,0,0,124,277c5,5.2,15,13.17,22.62,18.95a18,18,0,0,1,4.94,22.95c-20.44,37.94-94,173.41-124.75,229.9-29.37,54-19.5,122.12,24,165.6L228.58,892.13a77.93,77.93,0,0,0,110.14.06,11.35,11.35,0,0,1,8-3.34,11.12,11.12,0,0,1,7.94,3.29l140.49,140.48a63.35,63.35,0,0,0,89.62,0L725.3,892.14a11.16,11.16,0,0,1,7.94-3.29,11.35,11.35,0,0,1,8,3.34,77.93,77.93,0,0,0,110.14-.06L1029.17,714.4C1072.65,670.92,1082.52,602.82,1053.15,548.8ZM654.73,836.9,555.61,936a22.19,22.19,0,0,1-31.22,0L425.27,836.9a22,22,0,0,1,.13-31.18l100.67-98.91a22,22,0,0,1,13.5-6.21h.86a22,22,0,0,1,13.5,6.21L654.6,805.72a21.93,21.93,0,0,1,.13,31.18Z" transform="translate(-10.06 -28.82)" fill="#000000" /></svg>
