<?xml version="1.0" encoding="UTF-8"?>
<svg xmlns="http://www.w3.org/2000/svg" viewBox="-3.9822 -3.5158 207.1544 182.8216"><path d="M18.65,9.2l21.7,21.7c-13.57,15.63-12.93,39.4,1.93,54.26,6.54,6.54,14.81,10.33,23.35,11.36,1.82.22,27.4.19,49.1.12,16.89-.05,30.61,13.63,30.61,30.52h0s-34.8,0-34.8,0h-31.04s-2.83,0-2.83,0h-12.43s-.02,0-.02,0c-15.92-1.4-31.45-8.18-43.61-20.33C-6.2,80.02-6.85,36.81,18.65,9.2ZM178.58,69.47c-12.16-12.16-27.69-18.93-43.61-20.33h-.02s-12.43,0-12.43,0h-2.83s-31.04,0-31.04,0h-34.8s0,0,0,0c0,16.89,13.72,30.57,30.61,30.52,21.7-.07,47.28-.1,49.1.12,8.54,1.03,16.81,4.82,23.35,11.36,14.86,14.86,15.5,38.63,1.93,54.26l21.7,21.7c25.5-27.61,24.85-70.82-1.96-97.62h0ZM113.19,30.7V0h-30.7v30.7h30.7ZM113.19,175.79v-30.7h-30.7v30.7h30.7Z" fill="#000000" /></svg>
