<?xml version="1.0" standalone="no"?>
<!DOCTYPE svg PUBLIC "-//W3C//DTD SVG 20010904//EN"
 "http://www.w3.org/TR/2001/REC-SVG-20010904/DTD/svg10.dtd">
<svg version="1.0" xmlns="http://www.w3.org/2000/svg"
 width="324.678035pt" height="424.019792pt" viewBox="0 0 324.678035 424.019792"
 preserveAspectRatio="xMidYMid meet">
<metadata>
Created by potrace 1.16, written by Peter Selinger 2001-2019
</metadata>
<g transform="translate(-1.033638,424.949378) scale(0.100000,-0.100000)"
fill="#000000" stroke="none">
<path d="M1633 3727 l-1623 -522 3 -1144 2 -1144 250 -158 c138 -87 253 -159
257 -159 5 0 9 494 10 1097 l3 1097 1263 407 c695 224 1267 411 1271 415 5 5
41 122 81 259 105 362 109 375 107 374 -1 0 -732 -235 -1624 -522z"/>
<path d="M1900 2666 l-965 -312 -3 -287 c-1 -158 1 -287 5 -287 9 0 1756 561
1761 565 12 11 187 635 178 634 -6 -1 -445 -141 -976 -313z"/>
<path d="M1708 1457 l-778 -251 0 -435 1 -436 257 -163 257 -163 3 394 2 393
433 138 c237 77 436 142 440 146 8 7 187 602 187 621 0 15 -9 12 -802 -244z"/>
</g>
</svg>
