<?xml version="1.0" standalone="no"?>
<!DOCTYPE svg PUBLIC "-//W3C//DTD SVG 20010904//EN"
 "http://www.w3.org/TR/2001/REC-SVG-20010904/DTD/svg10.dtd">
<svg version="1.0" xmlns="http://www.w3.org/2000/svg"
 width="1841.024539pt" height="550.378310pt" viewBox="0 0 1841.024539 550.378310"
 preserveAspectRatio="xMidYMid meet">
<metadata>
Created by potrace 1.16, written by Peter Selinger 2001-2019
</metadata>
<g transform="translate(-36.000000,573.179089) scale(0.100000,-0.100000)"
fill="#000000" stroke="none">
<path d="M6834 5717 c-3 -8 -4 -203 -2 -433 l3 -419 43 -3 42 -3 0 341 c0 188
4 339 9 336 4 -3 32 -47 61 -98 29 -51 93 -158 140 -239 48 -80 97 -164 109
-188 42 -82 56 -69 214 199 76 129 141 242 144 250 14 31 52 80 56 73 2 -5 5
-156 5 -337 1 -181 3 -330 4 -332 2 -1 19 -4 38 -6 l35 -3 3 438 2 437 -37 0
-38 -1 -110 -190 c-60 -105 -119 -207 -130 -227 -48 -90 -128 -222 -134 -222
-6 0 -49 71 -267 445 -110 188 -112 190 -148 193 -24 2 -38 -1 -42 -11z"/>
<path d="M8310 5295 l0 -435 310 0 310 0 0 35 0 35 -262 2 -263 3 -3 162 -2
163 227 2 c210 3 228 4 227 21 -1 9 -2 26 -3 37 -1 19 -8 20 -226 20 l-225 0
0 155 0 155 255 0 255 0 0 40 0 40 -300 0 -300 0 0 -435z"/>
<path d="M9430 5295 l0 -436 278 3 277 3 50 27 c170 90 171 314 2 393 l-47 22
41 29 c101 70 112 230 22 316 -68 65 -104 72 -375 76 l-248 4 0 -437z m482
345 c20 -6 53 -27 72 -46 64 -64 45 -188 -35 -230 -38 -19 -210 -36 -336 -32
l-88 3 -3 158 -3 157 178 0 c98 0 195 -5 215 -10z m52 -401 c134 -49 146 -217
21 -279 -48 -24 -59 -25 -257 -28 l-208 -3 0 165 0 166 195 0 c172 0 201 -2
249 -21z"/>
<path d="M10662 5295 l3 -436 288 -2 287 -2 0 38 0 37 -245 0 -245 0 0 400 0
400 -45 0 -45 0 2 -435z"/>
<path d="M11680 5295 l0 -435 303 0 c167 0 306 2 309 5 2 3 3 18 0 35 l-4 30
-259 0 -259 0 0 165 0 165 225 0 225 0 0 40 0 40 -225 0 -225 0 0 155 0 155
255 0 255 0 0 40 0 40 -300 0 -300 0 0 -435z"/>
<path d="M835 5410 c-167 -24 -332 -147 -414 -306 -64 -125 -61 32 -61 -2536
l0 -2338 20 0 c216 0 440 170 515 389 l25 75 0 2078 0 2078 2020 0 2020 0 0
285 0 285 -2037 -1 c-1121 -1 -2060 -5 -2088 -9z"/>
<path d="M14170 5135 l0 -285 2020 0 2020 0 0 -2079 0 -2080 31 -85 c74 -204
253 -346 467 -371 l62 -7 -2 2369 -3 2368 -23 65 c-70 192 -237 339 -428 375
-65 13 -371 15 -2110 15 l-2034 0 0 -285z"/>
<path d="M1870 2381 l0 -1581 285 0 285 0 0 544 0 544 413 5 c444 4 461 6 625
67 282 106 494 349 579 665 38 140 41 450 6 588 -94 370 -340 619 -705 714
l-103 27 -692 4 -693 3 0 -1580z m1295 1062 c241 -80 355 -264 343 -552 -10
-218 -102 -370 -272 -450 -98 -46 -143 -51 -481 -51 l-315 0 0 533 c0 294 3
537 8 541 18 19 654 0 717 -21z"/>
<path d="M14170 2380 l0 -1580 280 0 280 0 0 495 0 496 151 -3 152 -3 133
-220 c73 -121 174 -290 225 -375 51 -85 124 -204 161 -263 37 -60 68 -113 68
-118 0 -5 139 -9 326 -9 183 0 324 4 322 9 -1 5 -41 68 -88 140 -47 72 -118
182 -158 243 -39 62 -77 120 -82 128 -6 8 -83 127 -171 265 -89 137 -190 294
-226 348 -35 54 -66 104 -68 110 -3 7 73 121 168 254 94 134 196 278 226 320
30 43 112 160 183 260 70 100 128 184 128 187 0 3 -139 6 -309 6 l-309 0 -29
-43 c-15 -23 -138 -203 -272 -400 l-244 -357 -144 0 -143 0 0 845 0 845 -280
0 -280 0 0 -1580z"/>
<path d="M16622 3713 l3 -248 278 -3 277 -2 0 250 0 250 -280 0 -280 0 2 -247z"/>
<path d="M7407 3683 c-4 -3 -7 -152 -7 -330 l0 -323 -150 0 -150 0 0 -220 0
-220 133 0 c72 0 137 -4 144 -8 9 -6 13 -149 16 -567 3 -539 4 -563 25 -645
100 -381 422 -590 908 -590 152 0 182 7 178 42 -1 12 -3 120 -3 239 l-1 217
-122 4 c-180 7 -285 56 -357 164 -65 99 -66 106 -66 649 l0 490 255 1 255 2 3
221 2 221 -257 2 -258 3 -3 328 -2 327 -268 0 c-148 0 -272 -3 -275 -7z"/>
<path d="M5365 3105 c-578 -106 -972 -523 -1015 -1075 -49 -623 340 -1121 985
-1262 95 -20 429 -17 535 5 589 127 964 581 963 1167 0 571 -376 1023 -958
1152 -122 26 -397 34 -510 13z m443 -500 c280 -102 439 -330 450 -642 14 -417
-243 -714 -633 -730 -319 -14 -569 158 -673 462 -37 109 -40 361 -5 461 84
244 246 403 475 464 108 30 285 23 386 -15z"/>
<path d="M9840 3105 c-635 -93 -1063 -599 -1037 -1225 13 -304 109 -533 315
-750 245 -258 537 -375 932 -375 608 1 1060 334 1207 889 35 131 40 406 10
545 -134 619 -752 1016 -1427 916z m372 -484 c311 -80 501 -342 502 -691 1
-221 -55 -363 -203 -510 -364 -361 -971 -194 -1112 305 -43 151 -29 362 33
510 125 301 462 467 780 386z"/>
<path d="M12592 3105 c-188 -29 -382 -106 -529 -211 -649 -467 -637 -1499 23
-1939 367 -245 902 -275 1323 -75 139 67 331 204 331 237 0 7 -31 70 -70 139
-38 68 -70 127 -70 129 0 2 -16 31 -36 64 l-36 61 -37 -31 c-108 -90 -239
-164 -387 -216 -116 -41 -358 -41 -479 0 -443 148 -612 717 -330 1112 226 318
709 354 1072 81 l72 -54 52 81 c29 45 75 118 104 162 28 44 60 94 70 111 l18
31 -43 39 c-142 129 -325 219 -548 270 -97 22 -382 27 -500 9z"/>
<path d="M16627 3063 c-4 -3 -7 -514 -7 -1135 l0 -1128 285 0 285 0 0 1135 0
1135 -278 0 c-153 0 -282 -3 -285 -7z"/>
</g>
</svg>
